<mxfile><diagram id="KjrErTVRP9iZeqJHBAPl" name="Page-1"><mxGraphModel dx="416" dy="825" grid="1" gridSize="10" guides="1" tooltips="1" connect="1" arrows="1" fold="1" page="1" pageScale="1" pageWidth="850" pageHeight="1100" math="0" shadow="0"><root><mxCell id="0"/><mxCell id="1" parent="0"/><mxCell id="86" style="edgeStyle=none;html=1;exitX=0;exitY=0.5;exitDx=0;exitDy=0;entryX=1;entryY=0.5;entryDx=0;entryDy=0;entryPerimeter=0;endArrow=none;endFill=0;" parent="1" source="2" target="80" edge="1"><mxGeometry relative="1" as="geometry"><Array as="points"><mxPoint x="560" y="434"/></Array></mxGeometry></mxCell><mxCell id="87" style="edgeStyle=none;html=1;exitX=1;exitY=0.5;exitDx=0;exitDy=0;entryX=1;entryY=0.115;entryDx=0;entryDy=0;entryPerimeter=0;endArrow=none;endFill=0;fillColor=#f8cecc;strokeColor=#b85450;" parent="1" source="2" target="64" edge="1"><mxGeometry relative="1" as="geometry"><Array as="points"><mxPoint x="485" y="206"/><mxPoint x="455" y="206"/></Array></mxGeometry></mxCell><mxCell id="2" value="" style="pointerEvents=1;verticalLabelPosition=bottom;shadow=0;dashed=0;align=center;html=1;verticalAlign=top;shape=mxgraph.electrical.miscellaneous.batteryStack;flipH=0;flipV=0;rotation=-90;" parent="1" vertex="1"><mxGeometry x="510" y="226" width="100" height="60" as="geometry"/></mxCell><mxCell id="81" style="edgeStyle=none;html=1;exitX=1;exitY=0.57;exitDx=0;exitDy=0;exitPerimeter=0;entryX=0;entryY=0.5;entryDx=0;entryDy=0;entryPerimeter=0;endArrow=none;endFill=0;" parent="1" source="4" target="80" edge="1"><mxGeometry relative="1" as="geometry"/></mxCell><mxCell id="4" value="" style="verticalLabelPosition=bottom;shadow=0;dashed=0;align=center;html=1;verticalAlign=top;shape=mxgraph.electrical.opto_electronics.led_2;pointerEvents=1;direction=south;rotation=-90;" parent="1" vertex="1"><mxGeometry x="310" y="384.01" width="70" height="100" as="geometry"/></mxCell><mxCell id="17" value="+" style="text;html=1;align=center;verticalAlign=middle;resizable=0;points=[];autosize=1;strokeColor=none;fillColor=none;" parent="1" vertex="1"><mxGeometry x="580" y="206" width="20" height="20" as="geometry"/></mxCell><mxCell id="84" style="edgeStyle=none;html=1;exitX=1;exitY=0.5;exitDx=0;exitDy=0;exitPerimeter=0;entryX=0;entryY=0.57;entryDx=0;entryDy=0;entryPerimeter=0;endArrow=none;endFill=0;" parent="1" source="89" target="4" edge="1"><mxGeometry relative="1" as="geometry"><Array as="points"><mxPoint x="240" y="439"/></Array><mxPoint x="250" y="268" as="sourcePoint"/></mxGeometry></mxCell><mxCell id="18" value="-" style="text;html=1;align=center;verticalAlign=middle;resizable=0;points=[];autosize=1;strokeColor=none;fillColor=none;" parent="1" vertex="1"><mxGeometry x="570" y="293" width="20" height="20" as="geometry"/></mxCell><mxCell id="22" value="LED1&lt;br&gt;" style="text;html=1;align=center;verticalAlign=middle;resizable=0;points=[];autosize=1;strokeColor=none;fillColor=none;" parent="1" vertex="1"><mxGeometry x="330" y="471.65" width="50" height="20" as="geometry"/></mxCell><mxCell id="23" value="5V" style="text;html=1;align=center;verticalAlign=middle;resizable=0;points=[];autosize=1;strokeColor=none;fillColor=none;" parent="1" vertex="1"><mxGeometry x="600" y="246" width="30" height="20" as="geometry"/></mxCell><mxCell id="24" value="Cole Porter - TEJ3M - Unit #4-11&lt;br&gt;" style="text;html=1;align=center;verticalAlign=middle;resizable=0;points=[];autosize=1;strokeColor=none;fillColor=none;" parent="1" vertex="1"><mxGeometry x="250" y="530" width="190" height="20" as="geometry"/></mxCell><mxCell id="30" value="220 Ω&amp;nbsp;" style="text;html=1;align=center;verticalAlign=middle;resizable=0;points=[];autosize=1;strokeColor=none;fillColor=none;" parent="1" vertex="1"><mxGeometry x="440" y="404.01" width="50" height="20" as="geometry"/></mxCell><mxCell id="40" value="INPUT A" style="text;html=1;align=center;verticalAlign=middle;resizable=0;points=[];autosize=1;strokeColor=none;fillColor=none;" parent="1" vertex="1"><mxGeometry x="395" y="173" width="60" height="20" as="geometry"/></mxCell><mxCell id="92" style="edgeStyle=none;html=1;exitX=0;exitY=0.885;exitDx=0;exitDy=0;exitPerimeter=0;entryX=0;entryY=0.25;entryDx=0;entryDy=0;entryPerimeter=0;fillColor=#f5f5f5;strokeColor=#666666;endArrow=none;endFill=0;" parent="1" source="64" target="89" edge="1"><mxGeometry relative="1" as="geometry"/></mxCell><mxCell id="64" value="" style="pointerEvents=1;verticalLabelPosition=bottom;shadow=0;dashed=0;align=center;html=1;verticalAlign=top;shape=mxgraph.electrical.electro-mechanical.2-way_switch;rotation=-180;flipH=1;flipV=1;" parent="1" vertex="1"><mxGeometry x="360" y="185" width="95" height="36" as="geometry"/></mxCell><mxCell id="65" style="edgeStyle=none;html=1;exitX=0;exitY=0.885;exitDx=0;exitDy=0;exitPerimeter=0;entryX=0.095;entryY=0.869;entryDx=0;entryDy=0;entryPerimeter=0;endArrow=none;endFill=0;" parent="1" source="64" target="64" edge="1"><mxGeometry relative="1" as="geometry"/></mxCell><mxCell id="68" value="4.7K&amp;nbsp;Ω&amp;nbsp;" style="text;html=1;align=center;verticalAlign=middle;resizable=0;points=[];autosize=1;strokeColor=none;fillColor=none;" parent="1" vertex="1"><mxGeometry x="290" y="193" width="60" height="20" as="geometry"/></mxCell><mxCell id="96" style="edgeStyle=none;html=1;entryX=1;entryY=0.885;entryDx=0;entryDy=0;entryPerimeter=0;endArrow=none;endFill=0;" parent="1" source="80" target="91" edge="1"><mxGeometry relative="1" as="geometry"><Array as="points"><mxPoint x="520" y="434"/><mxPoint x="520" y="345"/></Array></mxGeometry></mxCell><mxCell id="80" value="" style="pointerEvents=1;verticalLabelPosition=bottom;shadow=0;dashed=0;align=center;html=1;verticalAlign=top;shape=mxgraph.electrical.resistors.resistor_1;" parent="1" vertex="1"><mxGeometry x="410" y="424.01" width="100" height="20" as="geometry"/></mxCell><mxCell id="89" value="" style="verticalLabelPosition=bottom;shadow=0;dashed=0;align=center;html=1;verticalAlign=top;shape=mxgraph.electrical.logic_gates.logic_gate;operation=and;negating=1;negSize=0.15;flipH=1;" parent="1" vertex="1"><mxGeometry x="240" y="206" width="100" height="60" as="geometry"/></mxCell><mxCell id="93" style="edgeStyle=none;html=1;exitX=1;exitY=0.115;exitDx=0;exitDy=0;exitPerimeter=0;endArrow=none;endFill=0;" parent="1" source="91" edge="1"><mxGeometry relative="1" as="geometry"><mxPoint x="490" y="210" as="targetPoint"/><Array as="points"><mxPoint x="490" y="317"/></Array></mxGeometry></mxCell><mxCell id="95" style="edgeStyle=none;html=1;exitX=1;exitY=0.885;exitDx=0;exitDy=0;exitPerimeter=0;endArrow=none;endFill=0;entryX=1;entryY=0.885;entryDx=0;entryDy=0;entryPerimeter=0;fillColor=#f8cecc;strokeColor=#b85450;" parent="1" source="91" target="64" edge="1"><mxGeometry relative="1" as="geometry"><mxPoint x="510" y="210" as="targetPoint"/><Array as="points"><mxPoint x="510" y="345"/><mxPoint x="510" y="250"/><mxPoint x="455" y="240"/></Array></mxGeometry></mxCell><mxCell id="97" style="edgeStyle=none;html=1;exitX=0;exitY=0.885;exitDx=0;exitDy=0;exitPerimeter=0;entryX=0;entryY=0.75;entryDx=0;entryDy=0;entryPerimeter=0;endArrow=none;endFill=0;" parent="1" source="91" target="89" edge="1"><mxGeometry relative="1" as="geometry"><Array as="points"><mxPoint x="350" y="345"/><mxPoint x="350" y="251"/></Array></mxGeometry></mxCell><mxCell id="91" value="" style="pointerEvents=1;verticalLabelPosition=bottom;shadow=0;dashed=0;align=center;html=1;verticalAlign=top;shape=mxgraph.electrical.electro-mechanical.2-way_switch;rotation=-180;flipH=1;flipV=1;" parent="1" vertex="1"><mxGeometry x="370" y="313" width="95" height="36" as="geometry"/></mxCell><mxCell id="98" value="" style="shape=image;verticalLabelPosition=bottom;labelBackgroundColor=#ffffff;verticalAlign=top;aspect=fixed;imageAspect=0;image=data:image/png,iVBORw0KGgoAAAANSUhEUgAAAMAAAACoCAIAAAA5GXZnAAAgAElEQVR4nO2dZ3Qc1dnHZ2brbO9Nu+oryWprucmSbVV3G+ECtjEptCTkJD4JfEgCJzkHQkgogTQOBwMGYiAmNqHZ2I4AN7lIskHySm4qq67d1Wp7n52deT/ckz16ZdlYmlVL5vfB52g9c+fZO/+9M3Pnef4XJkkSoqGZKsxxfw8NDc1KHDTzBQaDoVarYRgGf8LjRiAWizUbUdHMG9RqdVdXF5fLBX+OH4FwHP/8889zc3NnPDCaeYDZbP7xj3889pPxAoIgSK/XZ2VlzVRINPMJp9M57hNkVuKg+a+BFhANJWgB0VCCFhANJWgB0VCCFhANJWgB0VBignmgOyEYDF68ePHjjz9+5JFH8vLywPx1R0fHv//9b5/P99BDD2m1WgiCAoHAv/71L7VavXz5crfbffDgwU8//TTRSEVFxc6dO0tKSm5uH8fxlpaWAwcONDY2gk8effTR9evXq1SqW4XU2tp648aNzMzMpUuXTu1LJQ59/vz5gYGBkpISgiA+/PDDH/zgBzKZ7N///jcMw0uWLElJSbl5L4fD8fnnn7/++uvjPt+0adP3vvc9g8FAJaSx2Gy2+vp6jUZTUVGRmA4GxONxl8v1xhtvbNiwIS8vD0XRZB30NkxRQFar9fLlyyRJNjY2ZmVlAQEFg8H29vYrV64UFhbefffdEAThOD40NIQgSCwWC4fDHo/HaDSuX78eQRAcx3t6ek6dOkUQxOLFi8c2HolETp482djYqFKpfvazn4GWW1paFApFeXm5RCKZMCSfz2e1WuVy+dS+UQIEQbKyslQqlVgs7uvr6+zsjEQiBEHY7XYYhiORyIR7CQSCZcuWoSgajUaPHTtGEMTKlStVKlVGRsatAp4aQqFw6dKlPB5vwpdOGIZ1d3f7fL54PJ7Eg96GqQgoFovZ7Xa/319eXn7hwgWbzWYwGMD3kUqlKIo2NTWVlJTo9fpxO/J4vIULF+7YsYPBYMTj8aamphMnTjQ1NWVlZY3t5f7+/vb2djabvXnz5sLCQpIko9Ho3r17e3p6MjMzRSLRwMDA6dOnr1y5AkGQyWSqrq6ORqNnz5796quvLBaLTqdbsGDBuXPnzpw54/V6TSbTqlWrxo4Bw8PD165dMxgMGRkZw8PD7e3taWlpBQUFbre7ublZr9fjOO5yuUZHR+vr61tbWz/88MMtW7bE4/FwOHz27NlDhw4RBLF58+aCggIGgwHaRFE0Pz8/Pz8/EAgMDg7G4/HNmzdnZGSEQqFr1661tLRAEIQgSF1dXTQaPXr0aFdXFwRBqampW7du1Wg0g4ODLS0twWBwaGgoHA4XFhZWV1eLxWKXy/Xpp5/29vaiKFpaWrps2TIcx202m1Qq1el0LS0tDQ0NNptNr9evXLnSYDDU19e3tLTw+Xwul1tcXOxwOBoaGsxmM4fDqaurKyoqikQizc3NfX19EASp1erVq1dTHKimIiC/3+92u0Ui0aJFi8xms8ViUSgUQEAajaakpITL5Z45c2bbtm23aYTBYOTn51+/fn14eNjpdCYEFI/Hr1+/HovFTCZTXl4eBEEwDHO53NWrV9tsNhRFbTZbc3Nza2trNBoFJ0Or1SqVShzHMQzDMCwcDt+4cePEiRN2uz0YDDY0NBAEsWnTJqlUCg4RDocvXboUi8W0Wu3AwMCJEycWLVqUn59vt9u/+eYbBEG8Xm93d3dOTg6GYTiOR6NRgiAgCHI4HOFw2Ov1Dg4OBoPBn/70pyqVKqGhCQmHw2az+dNPP120aJFarfZ4PBcuXGhrawuFQpFIxGazabXaTZs2Wa3Wt956KzU1lcvlDg4OjoyMqFSqkpKSU6dOdXR0BINBj8fT3t6uUCgkEklTU1NqaqpEIjl37pzFYonFYhiG8Xg8sVicCDgej4+MjFy4cKGhoQF8eODAAR6Px+FwTp482d/fv2DBAqlUSj2ZZyoCcjgcfr8/PT09JSWlvLzcYrEUFBQIhUIIgjgcjtFoNBqNH3/88eLFi29/QeHxeDKZzOl0hsPhxIc4jlutVi6XazAYmExmNBrt7e21WCzxeFylUvF4PIfDEY/HN2zYUFtb6/P5fvWrX9lstvz8/KqqKpFIVFhYmJmZ+e6778Zisccff1wsFr///vvt7e2FhYUJAalUKi6XGwqFvF4vSZJ8Pt/r9WIYNjQ0pNFoNBpNKBRiMBh6vV6n0w0MDNx///0ajYbBYGAYVlBQUFlZ2dTU9PLLL9tsNplMdnsBQRAUj8fFYvH27duLi4utVqvP59u+ffuiRYscDseXX37Z1ta2du1akiRtNtv69eu3bt16/fr1r7766tq1azk5OadOndq0aVNZWRn4VSQuoCRJ9vX1jY6O7tq1a/HixV1dXT09PVwud/Pmzc3Nzbt37y4uLjabzR0dHQUFBd/97netVusvf/nLS5cuFRYW4jienZ29e/fujIyMKZz9cUxaQARB9Pf39/f35+TkdHR0EARx7dq1srIyhUIBNuDz+eBCc/LkyTVr1txG4yRJ4jg+4dUaRVEwtAaDwfr6+v3793s8nuLi4kcffXTVqlVardbhcLS3t2MYRpJkIjcFhBcIBK5du6bX64eGhkKhEJ/PR1F0dHQ0sQ2HwwGiGRgYgGHYaDQ6HA6Xy9Xe3m40GuVyucVimTBgnU6XlpYmEAj0en1KSsrY494GDocjl8vFYjEEQVqtdvfu3aOjo729vaOjo2N/OUVFRTk5OVKpVK1WGwwGGIZB5o3X671x44ZMJisuLpZIJAMDA2B7Ho/H5/NtNtv169fFYnFNTQ2Xy7XZbIm+BVeJhQsXSiQSFotVWVnZ39+fnp4uEAgkEgmfz7+T4L+VSQsoEAhYLJaDBw+CqzgMw5mZmVVVVampqWADBEHUavXOnTv/9Kc/5eXlRaPRWzUVi8XcbrfH4xl3JhgMhsfjcbvdEATJZLI9e/bs2bOntbX1yJEjJEm6XK7jx4//+c9/7uvrI0kSw7DCwsJxLRME8ec///n5558HLS9evHjsNmw2Ozc3d2BgoLu7m8/nazQav98/PDzs9/v5fD6Hw7lVwCKRCOhgUrDZbIlEAnaMx+P/+te/9u7de+PGDeg/egKbKZVKkUiUGM9gGJZKpT/96U+ffPLJJ554QqlUPvzwwzt27AA/SBiGCwoKfD7fc88919zcvHLlyscee6yiomJs33q93kAgkOhSrVbb398PQRCKohKJhMfjTfaLTMikBXT9+nW32/3II49s376dzWYTBHH8+PGurq6cnJzENhwOJzMz02g0HjlyxOVyGY3GCZsKBoOhUIjNZoPLX2LfnJycM2fOdHd3l5SUsNnssbvgOP7NN9/09fU9/fTTVVVV0Wj0pZde0mg041pGEOSNN95YsmSJQCCAIIjBYIx74k1PT3c4HP39/UwmMzU1VSgUms3maDQql8uT1bM3Q5Kk2Wy+dOnSL37xi1WrVnm93sbGxt7e3lttjyCIRCJ56aWXnnvuud7e3vPnzx8+fHj58uWJDSorK0tLSyORSFNT08WLF+VyeWKag81my2Qyh8MB/ozH4wMDA7FYLOlfanITibFYrKuriyCIBQsWKJVKiUQilUrT09MtFsvg4ODYwYbL5d5zzz3BYNBisfh8vgmbamhosNvtBQUFYNIowYIFC4RC4YULF7766isIgkiS9Hq9Bw8eBENOPB6Px+M8Hk8gEFit1vr6+rGXJwRBwLj99ddfRyIRBoNx/PjxV1999fLly2MPIRQKg8FgR0eHzWZTq9XZ2dlXrlzR6XRSqZTJnOLUxp2A4ziO4yiK8vl8h8PR1tZ2qy3j8fjQ0NCvf/3rzs5ONpvN5/P5fL5AIAC/KJIkT5w48d5779ntdrFYLBAIUBQdJ32pVOpyuRobG51OZ3d39xdffJGdnS0SiZL7jSbXWW63u7+/n8PhpKamJq47qampJEneuHFj7AwbgiBpaWnr168fGRlJ3OWMjo7+85//PHnyJAzDBEHo9frq6uqKiopxUxpSqbSuru7SpUtffvnla6+9RpJkLBZbsmTJjh07iouLR0dHW1tbn3rqqX379lVWVi5duhRBkEgkIhAIBgcHGxsbeTzexo0b33333SeffDIQCCgUitra2vT09LGHEAgE4Hokl8tlMlkoFHK5XOvWrRs7FjKZTCaT6ff79+7de//99+M4TjHfF4bhtLQ0rVb75ptvfvDBB9nZ2Uql0uVyYRh288YIggiFwoKCgqeeegrDMLVavWLFikWLFoFuh2EYiP43v/mN3+9PTU1dt25dSkpKNBrl8/n79+/HcTwvL6+kpOTIkSP3338/BEErVqwoLS29w/u2O2dyAuLxeNXV1RwOJ3HVgGFYqVTu3LmTz+cLhcLs7OzExYLFYq1cuVIgEKhUKoFAwGAwtmzZkp2dnWgtKyvLZDLdfAFiMpkZGRl8Pl8sFidOfFlZWV5enkAgEAgEGzdulMlkbDZ74cKFy5Yt4/F4EolEIBBs2rRpeHhYq9Xq9fqNGzfqdDrQuQsXLkzc4ycOsXDhQp1OJ5PJuFyuRqO57777iouL+Xw+giDFxcWpqangMfCRRx6BIEihUKxatQpBEIVCwWQydTrdd77zHb1ef/NwxeFwwFMVeALl8/mLFi1KT08HzwRyuXzLli05OTmxWCw9PV2pVHq9XhRF09PT6+rqUlNTwR1keXk5giACgaCmpgbDML/fL5fLi4uLU1JSIpHImjVrhEJhamrq6tWrdTqdx+MxGAyLFy/m8/ksFmvHjh1gZkihUCxfvpzL5XZ2dnI4nFWrVun1egzDamtrwfP8pE79rRifVA/D8OXLl4uLi5PSOs1/Gc3NzXV1db29vYlhgn6ZSkMJWkA0lKAFREMJWkA0lKAFREMJWkA0lKAFREMJWkA0lKAFREMJWkA0lKAFREMJWkA0lKAFREMJWkA0lKAFREMJWkA0lKAFREMJWkA0lKAFREMJWkA0lKAFREOJict6gsHgsWPH4vF4TU2NUqmkfhiz2dzW1paZmVlWVnbz/w4PD3/22Wdut/uHP/yhVCpFkP8nawzDPvjgA6PRWFBQkKiLi0ajFovl/ffff/jhh0H9DfUgDx48yGazlyxZkjCmwXG8v7//+eefb29vB8YGarV6w4YNDzzwwNgKMvAFOzs7i4uLb1WGCxgcHPzb3/7W1NTk9/sLCgruv//+devW3WpjkiR9Pt/rr79eXl5uMplAle0dMjIy8uWXX6Ioum7duumrtYVuJSCCIIAJRrKKYYPB4MjIyLjiLEAoFOrr67t27RqwHRIIBONKlkiStNvtarUax/GxHwaDwd7e3mg0mqwFhxwOB4fDGVtfC6yJ7Hb72rVrjUYjiqLDw8MOh+PMmTObNm0a9wXHmSWMIxaLdXZ2vvnmm1lZWUuWLGEymS6Xq7W11ePxbN26dVwFd+Lo8Xh8cHDQ6/VO1jAqFouNjIzw+fzpdpr6lh8uOHkNDQ1CofDMmTOhUKioqKiysjIlJaWnp6elpUWr1dbX1wsEgjVr1gDrkO7u7pGRkZqaGhaLdfXqVbvdzmazz5079/nnn1+7dk2r1RYVFY2tj/R4PDabDZhdtLa2qtXqyda8gYJ5u90+Ojra1tbG4/GqqqoqKiqcTufVq1f9fr/NZhsaGioqKrrrrrtQFAW2eVlZWQqFor+//+rVq7m5uR6Pp76+PhQKEQSBoqhOp0u0z2azS0tLV6xYIRQKu7q6gPfK2rVr77xQFYwlX3zxhVwur6mpycrKYrPZVqv1zJkzbW1tixcvNhgMp0+fViqVWVlZKIr29PRcvXrVZDKdO3fu4sWLwWCQzWYLBAKn08lgMFpaWhwOx9atW4EJn9lshiBoyZIlCIL09/ebzeZly5adPXv29OnTbDZbrVavXbt2nDVAEvkWAREE4Xa7v/rqK5FIFIlEXC7XiRMnUBStqqrq6uo6ePBgWVlZLBbr7+8/f/48n8+XSCQdHR03btyorKxkMpk9PT3Xr1+/jQ8NQRBOp9PpdC5evJjD4XzxxRdLly6VSCTfarozlng8fvXq1dbWVhaLFQ6HrVbr8PCw0Wh0uVwfffRRLBZLSUnxer1NTU1arba8vLytrQ2GYZlMJpPJrFbr+fPnJRIJh8O5w7JfJpM5qasJBEGxWMzhcJjN5h/96Efp6elgvFGr1fn5+e3t7a2trSqVqqmpyWg0ajQaFovV39/f0NAwthybIAiLxXLhwgVQHu92u48ePSqTyQQCweXLl2EYNplMDAZjcHDw9OnTOTk5M7YM3B3dOsAwzGQyn3jiiUAgsHfv3sHBQZ/Ph+N4KBRSq9V79uy5cuXK0aNHb9y4YTKZbt7dYDBotVoWi5Wfnz+u5jUajTqdzlAoBMqWgVOCTqebgnsNg8EoLS1ds2bN119//cwzz9jtdgiC7Ha7wWDYtWsXn88/cuTIF198YTKZxlkKQRDEYrEWLVq0Zs0aDodTXV09dviBIAjDsKamJqfTiaKow+EIhUIrV66cVJ08juMejycSicjl8sSOoHhZLBZ3d3fffKGBYZjP569fv/7ixYvr1q0rKSk5f/48hmESieTRRx/1+/3PPvtsR0fH2FLxBFwud8WKFXa7nc/nV1dXT9/wA92hgFgsFriJ4/F4er0eBMRisbRabUVFBZvNBl5aHo8nYUhzh3g8nsHBQavV2tfXx2KxgsFgT09Penr6FASkVqvBjsD9CUEQgiCys7OLiopSU1MJgigoKGhubgYGlOPu028DSZKhUOijjz5iMBgMBsNgMNTW1kokEhzHqd+5s9lsuVw+MjJyh9vrdLrly5eLxWKRSJSXl+dyuSbb4UnnjroAQRCtVstkMsf6SDCZTKFQKBKJEAQh/8O4HQmCuL1DmdVqPXv27MGDB/ft2wf959a4sLBQo9FM1kdCKBTe7IcqFovFYjGIfMIISZIE/oe3AoZhiUTy+OOPg3sgu91eX1//4osv/v73v5fL5XcYJAzDCIIAT5KxMRAEEY/HWSzWuHZu1W8oigKjvgnDBh/O8BqmU58HAsOy2+0mCMLn87nd7pvNyGw2220eTEKhUEtLi1gsrq+v7+3t7e3tvXz5slQq7e7u9ng8Uw5sLC6Xy+VyxWIx4Ibm8/nG9m8sFvN4PHc+AEAQJBKJDAYDiqIej+f2yhsLm83WarVCobC/vz/hc4jjuMPhsFgspaWlYwezSCTidrv9fv/N7QSDQYfDQZJkJBIZGRkZ5wsDTJXvPKqkMHUBYRhmt9vb29txHLdYLAwGQ6fTiUQin8935coVq9Xq8Xja2tq8Xu+tWnA4HE6nUygUZmRk8Hg84NIiFArBo/KUAxvL9evXzWbz6Oio2+3u6OgwmUzAFrOrqwu4w165cqW1tfXOGwRmeJFIRCwW3/l1kMFgyGSyzZs3v/rqq83NzcFgEMRWX18Pbg1BU8DwanR0tKura8J+A8+VoVBoeHh4YGBAr9cDK2CLxTI8POzxeL755psZc4gGTP0qzuFwxGJxU1PT22+/LRKJNmzYsHTpUrlcXlRU1NjY+NBDDy1atCgxqQPsIE+dOiUQCMrKykB/WSwWDMMyMzMTxoNcLtdoNDY2Nl69ehV43lL8epmZmQ6H45lnngEenbt27UJRtLKy0mKx/PGPf0xJSZFIJAmrfKVSuX//fofDsWvXrsSTI3gC/93vfoeiKJPJ5HA4WVlZO3bskEgkk7rIoihaXl6O4/jhw4dfeeWVSCSi0WjKy8urq6vB7Ghtbe177733xBNPZGVlyWQyhUIBwzCHw+HxeIcOHQqFQuFwmMFgdHZ2btmyBcOwXbt2mUwmuVy+bNmyDz/8cM+ePXl5eXq9HnhA83g8kiTPnj3LYrHuvffeZFlq3szEAuJyuZWVlSRJSqVSoVB47733ZmZmslgsBEFqamqYTCawg5TJZJWVldnZ2QqFAvggM5nMBQsWPPjgg2DKR6vVIggCjJjq6upKSkp0Ol2i34G/uFwuTwzgCIKUlZVpNBrQ1G3iZrFYaWlpDz30kEaj4XA44NwA12a1Wv3www+np6cPDg6qVKrMzMyUlJRYLJabm5udnc1gMDIzM7dv324ymVAU1Wg0TCYzLS0NgiBg4KVWqxOCBt6UP/nJTxwOB5hT5XK5aWlpixcvnqxbGYIgUqm0urqaz+cDO0CVSlVUVJR4jCoqKtq5c2dvb69MJtNoNPF4XKlUoii6bds2q9WalpZ2/fp1mUwGZuRhGF67di14tl2yZAmHw+np6VEqlZmZmS6XC/gY19bW5ubmqlSq6V1Imfz/QBAE1jC4PR6P59ixY3v27BkdHY3H49+6PRUikcgLL7xw/Phxp9M5qR0vX778hz/84ciRI4k76Onj/Pnzr7322p103dSIRqOffPLJCy+80NbWNk2HuBOamprUanU4HE58MsVLGJvN1ul0QPtJt90bB4Ig+fn5Wq12wvn+2yCVSgsKCsAj/TTFlkCpVBqNxuQuizGWxEA+fYeYGrTFHc0koC3uaJIMLSAaStACoqEELSAaStACoqEELSAaStACoqHExBOJNputr6/P6/UKBAKNRoPjOFgpJyUlBUVR8IobRdGUlBSSJPv6+nAc12g0AoHA6/WCzGKwRunAwEA0GlUqlWKxOBAI2Gw28N4AhuHh4eFQKATSAsPh8NDQEFiLhMlk2my2QCAgFouVSiWGYWCVK4PBwOFwHA7HfIlKp9PxeLwJo1Kr1UKhEETFZrPBUmtTiwosXjsuKr1ejyAIyBYSi8VarRasSEySZHp6OoIgTqfT6/Xy+fy0tDTwX/F43GAwGAyGySZbTiygb7755p133jGbzUajccOGDcFg8O233yYIYuvWrQaDoampqampSa/Xb9u2jSCIt99+OxgMbtiwwWg0ms3mU6dOKRQKsI7aP/7xj9HR0aqqquLi4s7OzmPHjvH5/AceeIDBYHz88ccDAwOlpaWlpaWDg4MfffQRgiAPPvggn88/fvx4R0dHcXFxVVWV0+l8//33IQjavXu3QqE4derUpKJav359Tk4OiEoul4N1a0BUlZWVJpMJRMXj8R588MFbRfXAAw8IBAIQVVFRUXV1dSKq++67T6lUnj59+vLly9nZ2Rs3bgyFQm+//XY8HgdRNTc3NzY2gqhIknzrrbduFdWBAwccDseEUX3yySf9/f3Lli1bvnw5iAqG4QcffPBWUe3YsYPD4TQ2NnZ2dhYWFm7ZsqWtre3IkSPxePyhhx7icDgNDQ3t7e0ZGRnf//73r169evjw4XA4vHv37t27d0+Y4ngb6JlomklAz0TTJBlaQDSUoAVEQwlaQDSUoAVEQwlaQDSUoAVEQwlaQDSUoAVEQ4nkCygUCl24cGHr1q0mk+nZZ58FZUpTIxaLdXd3P//883a7PYn1cocOHaqrq6utrX3llVcoVjA2NDR8/vnnvb29k90xEokcP358x44dK1aseO6557xeLzmzJcnJIgnGXmPBMOzatWufffbZxo0b5XL5119/feHCBSaTmZKSMoXWSJKMRqNWq3WstRQVcBxvbGxsb2+vq6vjcDhDQ0OHDx/euXPnlOvu/H6/x+O5uab7W8Noamq6cuVKdXW1QqEwm82ffvrpXXfdBere5xdJFlA0Gh0ZGfH5fLW1tXq93ufzdXV1paWlaTSaSVn+TBMEQbS3t4tEooqKColE8vHHH3d0dIyMjNzGwWg6wDBsYGAAx/GKigq9Xh+LxU6ePFlaWgrKNWcyEuok+RIWjUbD4TDILmCxWJmZmR6Px+FwJGsIoQJJkhiGWa1WUFIuEolkMhlJklardYYjCYfDoVAIRVGVSsVms0H9tdPpHGeWMC9IsoDC4XAgEOByuaCcViQSYRgWDAZnuOJ/QkiSDIfDNpsNRVEWi8VgMPh8PovFmtAHY1oJBoPBYBCGYS6XiyAIj8eDYTgSicyFXposSRYQhmGhUCi5bSYLkiRxHPf7/bN+njAMi0Qic2FUpk6SBcTn82UyWcLmKB6PA2+l5B5laiAIAtwzGQwGqOsGcc58eMDZjs1mAy8f8C8Mw9NdJD4dJLnvuFwuiqKBQAD4SgGbPqlUOr0GEXcGDMMoiqrVaqfTGQ6HY7GYy+UKh8MqlWqGI+Hz+VwuNxqNBgKBeDzudrtJkhSLxXOhlyZLkgXE4XC4XK7T6ezp6QmFQm1tbUqlMiUlJSlG4NQBFgUdHR0Oh8NutzudToFAkLAVnzHYbDafzwc+16FQ6NKlS4WFhWq1ej4KKMnnlcPhFBQU1NTUPPfcc6OjowsXLty5c2dGRsYcGZyZTGZtba3dbn/mmWcwDFu6dGldXV3CDWjGYLPZ5eXloVDor3/9q8/nKygo+N73vgccpWY4EuokWUAIgqhUqtraWpFI5PF4cnNz8/Pzp9Vqf1LAMKxSqTZu3JiWlhaLxYxGY25u7syPjjAMa7XaqqoqhUIRCASysrJyc3Mna14zR0h+3zGZTJ1Od/fddye95WSRk5OTk5MzuzEwmcyMjIwZnsCcDubErcmtYDAYEomktLQUzJTMdjgToNfrZTLZzF8E5w5zXUA6ne6+++6b7UBuCV3/NCdmaGjmL9MyAgEDdpIkGQwGcGifclNguo9iI7dqlvokJ5U5wLG9NO/eoSaYlnyghoaGdevWZWVl/eY3v+np6ZlyU2CNraefftpmsyX3/YPdbt+3b98HH3wAPL+nzMmTJz/55BOLxTLZHcPh8OHDhzdv3rxw4cKnnnoKGP5TiWS2SP67MLPZ/Nlnnz3yyCP79+9nMBhnz54FFf9TALy98vl8ye1cq9X62muvHT16lPppA9kHk32rFYvFzp49e+PGjd27d//lL39BEOTQoUNut5tKJLNF8vOBXC5XNBpdsWKFTqcbGhrq6ekZGBhISUmZC6M0WHVr//79JEmClblmJYxYLGaz2SAIKi0t1el0brf7+PHjq1atAuvCzEpIUybJI1AkEguzNa0AAAcaSURBVAHrSMhkMuBOAvKBkrV0JkXAIlwmk6mioiI9PX22NA3ygbhcrkKhYLPZaWlpbrcbLAozK/FQIfn5QD6fj8PhgB+3UCiMxWLhcHiOXODBFPD27dvz8/Mnu7BmEgkEAmCdL2DTjqIoBEHRaHTW80ymQJIHTBzH52Na3QyD43gsFpsjWS4USX4+kFQqjcfjYMgB3cRkMufmPPJskcgHAkMOuAdnMBjzsZeSn86Boqjf7w+FQiDdWCAQSKXSeXdvOK2AfKBIJAKWnnU6nQiC0PlAEARBXC6Xw+GAJdDC4TDIB9Lr9fOxa6aPm/OBioqK1Gr1fHwhn/x8IJPJ5Ha7n3rqqeHh4aqqqvXr1/8XvHNOLiwWq6KiIhwOv/jii06ns6ys7Ec/+pFcLp/tuKZCkgUE1mOvrq5WqVR+vz89PT0zM3MWn3duhVwuv/vuu5lMJngCmmFgGFYqlatXr87IyAiFQnq9Pj09fZ4O0tOSD6RUKquqqpLechLhcrmZmZmzGACDwUhJSZlawe6cYk7f2zIYDLlcXlNTIxAI5uYTSmZmZjgclslksx3IrDHXBaRWq+vq6mY7kFuSl5c32yHMMv8Nc1k0s8h0jUAkSYZCIQRB2Gz2lF85kSQZj8dDoRCfz0/ie6tQKASmqVAU5fF4VGaEo9EoQRAsFmuyE13AeAQUfXO5XIFAME8npqcraAzD9u7de+jQIfDaeWrgON7Z2fnb3/42uflABw4cqKmpKS0tfemll+x2O5WmqOcDmUymp59+2uPxzJHXhZNlWgTkdDpfeeWVl19+meLpAQXISawhx3H82LFjXV1dv//97/ft24ei6IEDB6iYKxAEkajjvnNisdipU6e6uroef/zxzz77TCgUvvfeey6Xa8phzCJJFlA8Hu/o6Pj73/8eCATWrVsnEomS2z5FCILo7u7W6XT5+fkmk0kmk9lstpm3d8EwbHR0lMlkLly4MC8vz2QyXbp0yW63z0e7hSQLCEEQmUxWVla2ceNGo9E4p+bmE35nWq1WIBAAHwgEQahcZKdGOBwOh8NcLlcmk7FYrJSUFL/f73a752MiQ5IFBMOwQqEoKysrLi6eCymIYwH+QFarFdzzIgjC5XKZTCbwgZhJAoGA3+8nCILNZgOXIAiCMAybj7dB8/LOf2qASgwcx2fdzjJRjzG7YSSF/yEBAS8wnU4HlEQQRCwWA8PADEciEAhEIhGTyQRqBpmsYFCc4UioM/8injIwDHM4HI1GMzIyEgwGQf4/hmFqtXqGI+HxeCiKRiIRr9eL4/jIyAibzZZIJPPxfer/kICg//gDdXZ22u324eFhp9MpFApn/o0mm80WCAShUMhisQQCgUQ+0HwU0Jx+F5Z0mEzmpk2bRkZGfv7zn4fD4bq6uu985ztCoXCGw2CxWDU1NZFI5Nlnn7VarevWrXvsscfofKD/B4vF2r17N4vFkkgk03SIKQBKILZt27Z8+fJ4PK5WqzUazczfecAwLJFI1q9fX1RUFIlEVCqVTqebp1m/0xU0giBzNtlFo9FoNJrZjQFBEIVCoVAoZjcM6sxp1TMYDJVKtXnzZpFINDfzgXJzcyORiFKpnO1AZo25LiCFQrF69erZDuSWZGVlzXYIs8z/1lMYTdKhBURDiWkUUCwWi8ViFCfsCYKIRqNJn/UH87/Uw4vH4ziOT/kdFghjPr5DTTBdAopGo9QTyqbPYMpms+3bt++f//znbBlMJcI4dOjQa6+9FolEqIQxi0yLgFwu1xtvvPHyyy8PDw9TecOcSGlN7mvq4eHhV1999ejRo9TXCcQwbMquGv39/e+9994f//jHmU8HSCJJfgqLx+O9vb3Hjh1zOp3l5eVTXglwmiAIoqur65133mEymbNbcN3W1nb27FmHw7Fy5crZiiEpJL8yVSgUFhYWstlsNpsNMl3mDjAMi0Si5cuX8/n8ixcvzmLGkkQiKS4uTk1NHR4enqfJrIBpWepApVJFo9Fz584lt3HqwDCs0Wjq6uqGhobMZvMsRmIwGAwGw9DQ0MjIyCyGQR36MZ6GErSAaChBC4iGErSAaChBC4iGEtOYUHbPPfew2ey5mWgnl8u3bdvGYDBmxWAqgUKhWLt2LYZhc6qAblJMY0LZXHa243K5aWlpsx0FxOFw5mza3R0yD/KB1qxZIxQK52ZCWXZ2djgcnpuj7Mww1wWkUqk2bdo024HckllfOnPWoW+iaShBC4iGErSAaChBC4iGErSAaChBC4iGErSAaChBC4iGErSAaChBC4iGErSAaChBC4iGErSAaChBC4iGErSAaChBC4iGErSAaChBC4iGErSAaChBC4iGErSAaCgxQVXGT37yk7m20iDNHMHj8Yz7ZLyAXn311ZkKhmZewuPxxjq7wf8dy57RzBb0PRANJWgB0VCCFhANJf4PKaHryt5DCVwAAAAASUVORK5CYII=;" vertex="1" parent="1"><mxGeometry x="40" y="471.65" width="192" height="168" as="geometry"/></mxCell></root></mxGraphModel></diagram></mxfile>